<mxfile host="app.diagrams.net" modified="2024-01-26T20:39:36.428Z" agent="Mozilla/5.0 (Windows NT 10.0; Win64; x64) AppleWebKit/537.36 (KHTML, like Gecko) Chrome/120.0.0.0 Safari/537.36" etag="fAIj1dBs5Wpg2KUZdDB_" version="23.0.2" type="device">
  <diagram id="R2lEEEUBdFMjLlhIrx00" name="Page-1">
    <mxGraphModel dx="2819" dy="918" grid="1" gridSize="10" guides="1" tooltips="1" connect="1" arrows="1" fold="1" page="1" pageScale="1" pageWidth="850" pageHeight="1100" math="0" shadow="0" extFonts="Permanent Marker^https://fonts.googleapis.com/css?family=Permanent+Marker">
      <root>
        <mxCell id="0" />
        <mxCell id="1" parent="0" />
        <mxCell id="rf5e1oByOBRiGEH48eqN-1" value="Pertenece" style="rhombus;whiteSpace=wrap;html=1;" parent="1" vertex="1">
          <mxGeometry x="650" y="385" width="100" height="90" as="geometry" />
        </mxCell>
        <mxCell id="rf5e1oByOBRiGEH48eqN-3" value="Empleado" style="rounded=0;whiteSpace=wrap;html=1;" parent="1" vertex="1">
          <mxGeometry x="210" y="400" width="120" height="60" as="geometry" />
        </mxCell>
        <mxCell id="rf5e1oByOBRiGEH48eqN-4" value="&lt;u&gt;id_empleado&lt;/u&gt;" style="ellipse;whiteSpace=wrap;html=1;" parent="1" vertex="1">
          <mxGeometry x="-160" y="210" width="120" height="80" as="geometry" />
        </mxCell>
        <mxCell id="rf5e1oByOBRiGEH48eqN-5" value="nombre_empleado" style="ellipse;whiteSpace=wrap;html=1;" parent="1" vertex="1">
          <mxGeometry x="-30" y="170" width="120" height="80" as="geometry" />
        </mxCell>
        <mxCell id="rf5e1oByOBRiGEH48eqN-6" value="id_cargo" style="ellipse;whiteSpace=wrap;html=1;" parent="1" vertex="1">
          <mxGeometry x="110" y="150" width="120" height="80" as="geometry" />
        </mxCell>
        <mxCell id="rf5e1oByOBRiGEH48eqN-7" value="salario_empleado" style="ellipse;whiteSpace=wrap;html=1;" parent="1" vertex="1">
          <mxGeometry x="250" y="150" width="120" height="80" as="geometry" />
        </mxCell>
        <mxCell id="rf5e1oByOBRiGEH48eqN-8" value="fecha_inicio_empleado" style="ellipse;whiteSpace=wrap;html=1;" parent="1" vertex="1">
          <mxGeometry x="390" y="160" width="140" height="80" as="geometry" />
        </mxCell>
        <mxCell id="rf5e1oByOBRiGEH48eqN-10" value="" style="endArrow=none;html=1;rounded=0;exitX=0.5;exitY=0;exitDx=0;exitDy=0;" parent="1" source="rf5e1oByOBRiGEH48eqN-3" target="rf5e1oByOBRiGEH48eqN-4" edge="1">
          <mxGeometry width="50" height="50" relative="1" as="geometry">
            <mxPoint x="200" y="280" as="sourcePoint" />
            <mxPoint x="100" y="280" as="targetPoint" />
          </mxGeometry>
        </mxCell>
        <mxCell id="rf5e1oByOBRiGEH48eqN-11" value="" style="endArrow=none;html=1;rounded=0;exitX=0.5;exitY=0;exitDx=0;exitDy=0;" parent="1" source="rf5e1oByOBRiGEH48eqN-3" target="rf5e1oByOBRiGEH48eqN-5" edge="1">
          <mxGeometry width="50" height="50" relative="1" as="geometry">
            <mxPoint x="240" y="370" as="sourcePoint" />
            <mxPoint x="100" y="200" as="targetPoint" />
          </mxGeometry>
        </mxCell>
        <mxCell id="rf5e1oByOBRiGEH48eqN-12" value="" style="endArrow=none;html=1;rounded=0;exitX=0.5;exitY=0;exitDx=0;exitDy=0;" parent="1" source="rf5e1oByOBRiGEH48eqN-3" target="rf5e1oByOBRiGEH48eqN-6" edge="1">
          <mxGeometry width="50" height="50" relative="1" as="geometry">
            <mxPoint x="280" y="340" as="sourcePoint" />
            <mxPoint x="290" y="190" as="targetPoint" />
          </mxGeometry>
        </mxCell>
        <mxCell id="rf5e1oByOBRiGEH48eqN-13" value="" style="endArrow=none;html=1;rounded=0;exitX=0.5;exitY=0;exitDx=0;exitDy=0;" parent="1" source="rf5e1oByOBRiGEH48eqN-3" target="rf5e1oByOBRiGEH48eqN-7" edge="1">
          <mxGeometry width="50" height="50" relative="1" as="geometry">
            <mxPoint x="269" y="310" as="sourcePoint" />
            <mxPoint x="300" y="200" as="targetPoint" />
          </mxGeometry>
        </mxCell>
        <mxCell id="rf5e1oByOBRiGEH48eqN-14" value="&lt;br&gt;" style="endArrow=none;html=1;rounded=0;exitX=0.5;exitY=0;exitDx=0;exitDy=0;" parent="1" source="rf5e1oByOBRiGEH48eqN-3" target="rf5e1oByOBRiGEH48eqN-8" edge="1">
          <mxGeometry x="0.2691" y="-166" width="50" height="50" relative="1" as="geometry">
            <mxPoint x="301" y="300" as="sourcePoint" />
            <mxPoint x="475" y="197" as="targetPoint" />
            <mxPoint as="offset" />
          </mxGeometry>
        </mxCell>
        <mxCell id="rf5e1oByOBRiGEH48eqN-16" value="" style="endArrow=none;html=1;rounded=0;exitX=1;exitY=0.5;exitDx=0;exitDy=0;entryX=0;entryY=0.5;entryDx=0;entryDy=0;" parent="1" source="rf5e1oByOBRiGEH48eqN-3" target="rf5e1oByOBRiGEH48eqN-1" edge="1">
          <mxGeometry width="50" height="50" relative="1" as="geometry">
            <mxPoint x="339" y="436" as="sourcePoint" />
            <mxPoint x="512" y="270" as="targetPoint" />
          </mxGeometry>
        </mxCell>
        <mxCell id="rf5e1oByOBRiGEH48eqN-17" value="Departamento" style="rounded=0;whiteSpace=wrap;html=1;" parent="1" vertex="1">
          <mxGeometry x="1000" y="400" width="120" height="60" as="geometry" />
        </mxCell>
        <mxCell id="rf5e1oByOBRiGEH48eqN-18" value="asignar" style="rhombus;whiteSpace=wrap;html=1;" parent="1" vertex="1">
          <mxGeometry x="220" y="590" width="100" height="90" as="geometry" />
        </mxCell>
        <mxCell id="rf5e1oByOBRiGEH48eqN-19" value="fecha_inicio_empleado" style="ellipse;whiteSpace=wrap;html=1;" parent="1" vertex="1">
          <mxGeometry x="460" y="260" width="140" height="80" as="geometry" />
        </mxCell>
        <mxCell id="rf5e1oByOBRiGEH48eqN-20" value="&lt;br&gt;" style="endArrow=none;html=1;rounded=0;exitX=0.5;exitY=0;exitDx=0;exitDy=0;" parent="1" source="rf5e1oByOBRiGEH48eqN-3" target="rf5e1oByOBRiGEH48eqN-19" edge="1">
          <mxGeometry x="0.6725" y="-59" width="50" height="50" relative="1" as="geometry">
            <mxPoint x="430" y="420" as="sourcePoint" />
            <mxPoint x="498" y="242" as="targetPoint" />
            <mxPoint as="offset" />
          </mxGeometry>
        </mxCell>
        <mxCell id="rf5e1oByOBRiGEH48eqN-21" value="Proyecto" style="rounded=0;whiteSpace=wrap;html=1;" parent="1" vertex="1">
          <mxGeometry x="210" y="810" width="120" height="60" as="geometry" />
        </mxCell>
        <mxCell id="rf5e1oByOBRiGEH48eqN-22" value="&lt;u&gt;Id_departamento&lt;/u&gt;" style="ellipse;whiteSpace=wrap;html=1;" parent="1" vertex="1">
          <mxGeometry x="800" y="175" width="120" height="80" as="geometry" />
        </mxCell>
        <mxCell id="rf5e1oByOBRiGEH48eqN-23" value="nombre_departamento" style="ellipse;whiteSpace=wrap;html=1;" parent="1" vertex="1">
          <mxGeometry x="940" y="140" width="140" height="90" as="geometry" />
        </mxCell>
        <mxCell id="rf5e1oByOBRiGEH48eqN-24" value="descripcion_departamento" style="ellipse;whiteSpace=wrap;html=1;" parent="1" vertex="1">
          <mxGeometry x="1120" y="140" width="160" height="100" as="geometry" />
        </mxCell>
        <mxCell id="rf5e1oByOBRiGEH48eqN-26" value="" style="endArrow=none;html=1;rounded=0;entryX=0.5;entryY=0;entryDx=0;entryDy=0;" parent="1" source="rf5e1oByOBRiGEH48eqN-22" target="rf5e1oByOBRiGEH48eqN-17" edge="1">
          <mxGeometry width="50" height="50" relative="1" as="geometry">
            <mxPoint x="810" y="540" as="sourcePoint" />
            <mxPoint x="860" y="490" as="targetPoint" />
          </mxGeometry>
        </mxCell>
        <mxCell id="rf5e1oByOBRiGEH48eqN-27" value="" style="endArrow=none;html=1;rounded=0;entryX=0.5;entryY=0;entryDx=0;entryDy=0;" parent="1" source="rf5e1oByOBRiGEH48eqN-23" target="rf5e1oByOBRiGEH48eqN-17" edge="1">
          <mxGeometry width="50" height="50" relative="1" as="geometry">
            <mxPoint x="865" y="292" as="sourcePoint" />
            <mxPoint x="1090" y="420" as="targetPoint" />
          </mxGeometry>
        </mxCell>
        <mxCell id="rf5e1oByOBRiGEH48eqN-28" value="" style="endArrow=none;html=1;rounded=0;exitX=0.5;exitY=1;exitDx=0;exitDy=0;entryX=0.5;entryY=0;entryDx=0;entryDy=0;" parent="1" source="rf5e1oByOBRiGEH48eqN-24" target="rf5e1oByOBRiGEH48eqN-17" edge="1">
          <mxGeometry width="50" height="50" relative="1" as="geometry">
            <mxPoint x="996" y="265" as="sourcePoint" />
            <mxPoint x="1080" y="390" as="targetPoint" />
          </mxGeometry>
        </mxCell>
        <mxCell id="rf5e1oByOBRiGEH48eqN-29" value="" style="endArrow=none;html=1;rounded=0;exitX=1;exitY=0.5;exitDx=0;exitDy=0;entryX=0;entryY=0.5;entryDx=0;entryDy=0;" parent="1" source="rf5e1oByOBRiGEH48eqN-1" target="rf5e1oByOBRiGEH48eqN-17" edge="1">
          <mxGeometry width="50" height="50" relative="1" as="geometry">
            <mxPoint x="830" y="550" as="sourcePoint" />
            <mxPoint x="880" y="500" as="targetPoint" />
          </mxGeometry>
        </mxCell>
        <mxCell id="rf5e1oByOBRiGEH48eqN-30" value="" style="endArrow=none;html=1;rounded=0;entryX=0.5;entryY=1;entryDx=0;entryDy=0;" parent="1" source="rf5e1oByOBRiGEH48eqN-18" target="rf5e1oByOBRiGEH48eqN-3" edge="1">
          <mxGeometry width="50" height="50" relative="1" as="geometry">
            <mxPoint x="250" y="530" as="sourcePoint" />
            <mxPoint x="300" y="480" as="targetPoint" />
          </mxGeometry>
        </mxCell>
        <mxCell id="rf5e1oByOBRiGEH48eqN-31" value="" style="endArrow=none;html=1;rounded=0;entryX=0.5;entryY=1;entryDx=0;entryDy=0;exitX=0.5;exitY=0;exitDx=0;exitDy=0;" parent="1" source="rf5e1oByOBRiGEH48eqN-21" target="rf5e1oByOBRiGEH48eqN-18" edge="1">
          <mxGeometry width="50" height="50" relative="1" as="geometry">
            <mxPoint x="20" y="710" as="sourcePoint" />
            <mxPoint x="70" y="660" as="targetPoint" />
          </mxGeometry>
        </mxCell>
        <mxCell id="rf5e1oByOBRiGEH48eqN-32" value="&lt;u&gt;id_proyecto&lt;/u&gt;" style="ellipse;whiteSpace=wrap;html=1;" parent="1" vertex="1">
          <mxGeometry x="-15" y="960" width="120" height="80" as="geometry" />
        </mxCell>
        <mxCell id="rf5e1oByOBRiGEH48eqN-33" value="nombre_proyecto" style="ellipse;whiteSpace=wrap;html=1;" parent="1" vertex="1">
          <mxGeometry x="125" y="960" width="120" height="80" as="geometry" />
        </mxCell>
        <mxCell id="rf5e1oByOBRiGEH48eqN-34" value="id_empleado" style="ellipse;whiteSpace=wrap;html=1;" parent="1" vertex="1">
          <mxGeometry x="265" y="960" width="120" height="80" as="geometry" />
        </mxCell>
        <mxCell id="rf5e1oByOBRiGEH48eqN-36" value="descripcion_empleado" style="ellipse;whiteSpace=wrap;html=1;" parent="1" vertex="1">
          <mxGeometry x="405" y="960" width="150" height="80" as="geometry" />
        </mxCell>
        <mxCell id="rf5e1oByOBRiGEH48eqN-37" value="" style="endArrow=none;html=1;rounded=0;exitX=0.5;exitY=1;exitDx=0;exitDy=0;" parent="1" source="rf5e1oByOBRiGEH48eqN-21" target="rf5e1oByOBRiGEH48eqN-32" edge="1">
          <mxGeometry width="50" height="50" relative="1" as="geometry">
            <mxPoint x="360" y="930" as="sourcePoint" />
            <mxPoint x="410" y="880" as="targetPoint" />
          </mxGeometry>
        </mxCell>
        <mxCell id="rf5e1oByOBRiGEH48eqN-38" value="" style="endArrow=none;html=1;rounded=0;exitX=0.5;exitY=0;exitDx=0;exitDy=0;entryX=0.5;entryY=1;entryDx=0;entryDy=0;" parent="1" source="rf5e1oByOBRiGEH48eqN-33" target="rf5e1oByOBRiGEH48eqN-21" edge="1">
          <mxGeometry width="50" height="50" relative="1" as="geometry">
            <mxPoint x="280" y="880" as="sourcePoint" />
            <mxPoint x="181" y="919" as="targetPoint" />
          </mxGeometry>
        </mxCell>
        <mxCell id="rf5e1oByOBRiGEH48eqN-39" value="" style="endArrow=none;html=1;rounded=0;exitX=0.5;exitY=1;exitDx=0;exitDy=0;entryX=0.5;entryY=0;entryDx=0;entryDy=0;" parent="1" source="rf5e1oByOBRiGEH48eqN-21" target="rf5e1oByOBRiGEH48eqN-34" edge="1">
          <mxGeometry width="50" height="50" relative="1" as="geometry">
            <mxPoint x="260" y="970" as="sourcePoint" />
            <mxPoint x="350" y="910" as="targetPoint" />
          </mxGeometry>
        </mxCell>
        <mxCell id="rf5e1oByOBRiGEH48eqN-40" value="" style="endArrow=none;html=1;rounded=0;entryX=0.5;entryY=0;entryDx=0;entryDy=0;exitX=0.5;exitY=1;exitDx=0;exitDy=0;" parent="1" source="rf5e1oByOBRiGEH48eqN-21" target="rf5e1oByOBRiGEH48eqN-36" edge="1">
          <mxGeometry width="50" height="50" relative="1" as="geometry">
            <mxPoint x="320" y="840" as="sourcePoint" />
            <mxPoint x="470" y="930" as="targetPoint" />
          </mxGeometry>
        </mxCell>
        <mxCell id="rf5e1oByOBRiGEH48eqN-41" value="id_empleado" style="ellipse;whiteSpace=wrap;html=1;" parent="1" vertex="1">
          <mxGeometry x="70" y="550" width="120" height="80" as="geometry" />
        </mxCell>
        <mxCell id="rf5e1oByOBRiGEH48eqN-42" value="id_proyecto" style="ellipse;whiteSpace=wrap;html=1;" parent="1" vertex="1">
          <mxGeometry x="350" y="560" width="120" height="80" as="geometry" />
        </mxCell>
        <mxCell id="rf5e1oByOBRiGEH48eqN-43" value="" style="endArrow=none;html=1;rounded=0;exitX=0;exitY=0.5;exitDx=0;exitDy=0;" parent="1" source="rf5e1oByOBRiGEH48eqN-18" target="rf5e1oByOBRiGEH48eqN-41" edge="1">
          <mxGeometry width="50" height="50" relative="1" as="geometry">
            <mxPoint x="10" y="700" as="sourcePoint" />
            <mxPoint x="60" y="650" as="targetPoint" />
          </mxGeometry>
        </mxCell>
        <mxCell id="rf5e1oByOBRiGEH48eqN-44" value="" style="endArrow=none;html=1;rounded=0;exitX=1;exitY=0.5;exitDx=0;exitDy=0;" parent="1" source="rf5e1oByOBRiGEH48eqN-18" target="rf5e1oByOBRiGEH48eqN-42" edge="1">
          <mxGeometry width="50" height="50" relative="1" as="geometry">
            <mxPoint x="551" y="741" as="sourcePoint" />
            <mxPoint x="509" y="720" as="targetPoint" />
          </mxGeometry>
        </mxCell>
        <mxCell id="rf5e1oByOBRiGEH48eqN-55" value="1" style="text;html=1;align=center;verticalAlign=middle;resizable=0;points=[];autosize=1;strokeColor=none;fillColor=none;" parent="1" vertex="1">
          <mxGeometry x="225" y="468" width="30" height="30" as="geometry" />
        </mxCell>
        <mxCell id="rf5e1oByOBRiGEH48eqN-56" value="N" style="text;html=1;align=center;verticalAlign=middle;resizable=0;points=[];autosize=1;strokeColor=none;fillColor=none;" parent="1" vertex="1">
          <mxGeometry x="225" y="778" width="30" height="30" as="geometry" />
        </mxCell>
        <mxCell id="rf5e1oByOBRiGEH48eqN-57" value="1" style="text;html=1;align=center;verticalAlign=middle;resizable=0;points=[];autosize=1;strokeColor=none;fillColor=none;" parent="1" vertex="1">
          <mxGeometry x="285" y="778" width="30" height="30" as="geometry" />
        </mxCell>
        <mxCell id="rf5e1oByOBRiGEH48eqN-58" value="N" style="text;html=1;align=center;verticalAlign=middle;resizable=0;points=[];autosize=1;strokeColor=none;fillColor=none;" parent="1" vertex="1">
          <mxGeometry x="290" y="468" width="30" height="30" as="geometry" />
        </mxCell>
        <mxCell id="rf5e1oByOBRiGEH48eqN-59" value="&lt;u&gt;id_asignacion&lt;/u&gt;" style="ellipse;whiteSpace=wrap;html=1;" parent="1" vertex="1">
          <mxGeometry x="70" y="650" width="120" height="80" as="geometry" />
        </mxCell>
        <mxCell id="rf5e1oByOBRiGEH48eqN-60" value="" style="endArrow=none;html=1;rounded=0;exitX=0;exitY=0.5;exitDx=0;exitDy=0;entryX=1;entryY=0.5;entryDx=0;entryDy=0;" parent="1" source="rf5e1oByOBRiGEH48eqN-18" target="rf5e1oByOBRiGEH48eqN-59" edge="1">
          <mxGeometry width="50" height="50" relative="1" as="geometry">
            <mxPoint x="230" y="645" as="sourcePoint" />
            <mxPoint x="188" y="624" as="targetPoint" />
          </mxGeometry>
        </mxCell>
        <mxCell id="rf5e1oByOBRiGEH48eqN-61" value="Cargo" style="rounded=0;whiteSpace=wrap;html=1;" parent="1" vertex="1">
          <mxGeometry x="-470" y="400" width="120" height="60" as="geometry" />
        </mxCell>
        <mxCell id="rf5e1oByOBRiGEH48eqN-62" value="&lt;u&gt;id_cargo&lt;/u&gt;" style="ellipse;whiteSpace=wrap;html=1;" parent="1" vertex="1">
          <mxGeometry x="-670" y="260" width="120" height="80" as="geometry" />
        </mxCell>
        <mxCell id="rf5e1oByOBRiGEH48eqN-63" value="nombre_cargo" style="ellipse;whiteSpace=wrap;html=1;" parent="1" vertex="1">
          <mxGeometry x="-520" y="220" width="120" height="80" as="geometry" />
        </mxCell>
        <mxCell id="rf5e1oByOBRiGEH48eqN-64" value="descripcion_cargo" style="ellipse;whiteSpace=wrap;html=1;" parent="1" vertex="1">
          <mxGeometry x="-360" y="230" width="120" height="80" as="geometry" />
        </mxCell>
        <mxCell id="rf5e1oByOBRiGEH48eqN-65" value="" style="endArrow=none;html=1;rounded=0;exitX=0.5;exitY=0;exitDx=0;exitDy=0;" parent="1" source="rf5e1oByOBRiGEH48eqN-61" target="rf5e1oByOBRiGEH48eqN-62" edge="1">
          <mxGeometry width="50" height="50" relative="1" as="geometry">
            <mxPoint x="-820" y="480" as="sourcePoint" />
            <mxPoint x="-770" y="430" as="targetPoint" />
          </mxGeometry>
        </mxCell>
        <mxCell id="rf5e1oByOBRiGEH48eqN-67" value="" style="endArrow=none;html=1;rounded=0;exitX=0.5;exitY=0;exitDx=0;exitDy=0;" parent="1" source="rf5e1oByOBRiGEH48eqN-61" target="rf5e1oByOBRiGEH48eqN-63" edge="1">
          <mxGeometry width="50" height="50" relative="1" as="geometry">
            <mxPoint x="-400" y="410" as="sourcePoint" />
            <mxPoint x="-520" y="320" as="targetPoint" />
          </mxGeometry>
        </mxCell>
        <mxCell id="rf5e1oByOBRiGEH48eqN-68" value="" style="endArrow=none;html=1;rounded=0;exitX=0.5;exitY=0;exitDx=0;exitDy=0;" parent="1" source="rf5e1oByOBRiGEH48eqN-61" target="rf5e1oByOBRiGEH48eqN-64" edge="1">
          <mxGeometry width="50" height="50" relative="1" as="geometry">
            <mxPoint x="-400" y="410" as="sourcePoint" />
            <mxPoint x="-400" y="320" as="targetPoint" />
          </mxGeometry>
        </mxCell>
        <mxCell id="rf5e1oByOBRiGEH48eqN-69" value="Pertenece" style="rhombus;whiteSpace=wrap;html=1;" parent="1" vertex="1">
          <mxGeometry x="-160" y="390" width="90" height="80" as="geometry" />
        </mxCell>
        <mxCell id="rf5e1oByOBRiGEH48eqN-70" value="" style="endArrow=none;html=1;rounded=0;entryX=0;entryY=0.5;entryDx=0;entryDy=0;exitX=1;exitY=0.5;exitDx=0;exitDy=0;" parent="1" source="rf5e1oByOBRiGEH48eqN-61" target="rf5e1oByOBRiGEH48eqN-69" edge="1">
          <mxGeometry width="50" height="50" relative="1" as="geometry">
            <mxPoint x="-360" y="520" as="sourcePoint" />
            <mxPoint x="-310" y="470" as="targetPoint" />
          </mxGeometry>
        </mxCell>
        <mxCell id="rf5e1oByOBRiGEH48eqN-71" value="" style="endArrow=none;html=1;rounded=0;entryX=0;entryY=0.5;entryDx=0;entryDy=0;exitX=1;exitY=0.5;exitDx=0;exitDy=0;" parent="1" source="rf5e1oByOBRiGEH48eqN-69" target="rf5e1oByOBRiGEH48eqN-3" edge="1">
          <mxGeometry width="50" height="50" relative="1" as="geometry">
            <mxPoint x="10" y="429.5" as="sourcePoint" />
            <mxPoint x="200" y="429.5" as="targetPoint" />
          </mxGeometry>
        </mxCell>
        <mxCell id="rf5e1oByOBRiGEH48eqN-72" value="1" style="text;html=1;align=center;verticalAlign=middle;resizable=0;points=[];autosize=1;strokeColor=none;fillColor=none;" parent="1" vertex="1">
          <mxGeometry x="-345" y="398" width="30" height="30" as="geometry" />
        </mxCell>
        <mxCell id="rf5e1oByOBRiGEH48eqN-73" value="N" style="text;html=1;align=center;verticalAlign=middle;resizable=0;points=[];autosize=1;strokeColor=none;fillColor=none;" parent="1" vertex="1">
          <mxGeometry x="165" y="398" width="30" height="30" as="geometry" />
        </mxCell>
        <mxCell id="rf5e1oByOBRiGEH48eqN-75" value="1" style="text;html=1;align=center;verticalAlign=middle;resizable=0;points=[];autosize=1;strokeColor=none;fillColor=none;" parent="1" vertex="1">
          <mxGeometry x="355" y="398" width="30" height="30" as="geometry" />
        </mxCell>
        <mxCell id="rf5e1oByOBRiGEH48eqN-76" value="N" style="text;html=1;align=center;verticalAlign=middle;resizable=0;points=[];autosize=1;strokeColor=none;fillColor=none;" parent="1" vertex="1">
          <mxGeometry x="965" y="400" width="30" height="30" as="geometry" />
        </mxCell>
        <mxCell id="rf5e1oByOBRiGEH48eqN-77" value="N" style="text;html=1;align=center;verticalAlign=middle;resizable=0;points=[];autosize=1;strokeColor=none;fillColor=none;" parent="1" vertex="1">
          <mxGeometry x="355" y="440" width="30" height="30" as="geometry" />
        </mxCell>
        <mxCell id="rf5e1oByOBRiGEH48eqN-78" value="1" style="text;html=1;align=center;verticalAlign=middle;resizable=0;points=[];autosize=1;strokeColor=none;fillColor=none;" parent="1" vertex="1">
          <mxGeometry x="965" y="440" width="30" height="30" as="geometry" />
        </mxCell>
        <mxCell id="rf5e1oByOBRiGEH48eqN-79" value="id_departamento" style="ellipse;whiteSpace=wrap;html=1;" parent="1" vertex="1">
          <mxGeometry x="180" y="60" width="120" height="80" as="geometry" />
        </mxCell>
        <mxCell id="rf5e1oByOBRiGEH48eqN-80" value="" style="endArrow=none;html=1;rounded=0;" parent="1" target="rf5e1oByOBRiGEH48eqN-79" edge="1">
          <mxGeometry width="50" height="50" relative="1" as="geometry">
            <mxPoint x="270" y="400" as="sourcePoint" />
            <mxPoint x="329.69" y="228" as="targetPoint" />
          </mxGeometry>
        </mxCell>
        <mxCell id="FAGi_r7_TuM9o4ek95y0-1" value="1" style="text;html=1;align=center;verticalAlign=middle;resizable=0;points=[];autosize=1;strokeColor=none;fillColor=none;" vertex="1" parent="1">
          <mxGeometry x="165" y="440" width="30" height="30" as="geometry" />
        </mxCell>
        <mxCell id="FAGi_r7_TuM9o4ek95y0-2" value="N" style="text;html=1;align=center;verticalAlign=middle;resizable=0;points=[];autosize=1;strokeColor=none;fillColor=none;" vertex="1" parent="1">
          <mxGeometry x="-345" y="445" width="30" height="30" as="geometry" />
        </mxCell>
      </root>
    </mxGraphModel>
  </diagram>
</mxfile>
